<?xml version="1.0" encoding="utf-8"?>
<!-- Generator: Adobe Illustrator 25.0.1, SVG Export Plug-In . SVG Version: 6.00 Build 0)  -->
<svg version="1.1" id="Ebene_1" xmlns="http://www.w3.org/2000/svg" xmlns:xlink="http://www.w3.org/1999/xlink" x="0px" y="0px"
	 viewBox="0 0 500 500" style="enable-background:new 0 0 500 500;" xml:space="preserve">
<style type="text/css">
	.st0{fill:#1D1D1B;stroke:#1D1D1B;stroke-width:3;stroke-miterlimit:10;}
</style>
<g>
	<g>
		<circle class="st0" cx="94.4" cy="384.9" r="3.8"/>
		<circle class="st0" cx="129.5" cy="352.8" r="3.8"/>
		<circle class="st0" cx="182.3" cy="346.9" r="5.1"/>
		<circle class="st0" cx="217.6" cy="372.4" r="6.4"/>
		<circle class="st0" cx="260.4" cy="381.2" r="7.7"/>
		<circle class="st0" cx="302" cy="379.9" r="8.9"/>
		<circle class="st0" cx="337.8" cy="345.5" r="10.8"/>
		
			<ellipse transform="matrix(0.6283 -0.7779 0.7779 0.6283 -243.5596 268.149)" class="st0" cx="158.9" cy="389" rx="5.1" ry="5.1"/>
		<circle class="st0" cx="197.9" cy="414.4" r="6.4"/>
		<circle class="st0" cx="242.8" cy="426.6" r="7.7"/>
		<ellipse transform="matrix(0.968 -0.2511 0.2511 0.968 -97.3392 86.2318)" class="st0" cx="289.3" cy="424.6" rx="8.9" ry="8.9"/>
		
			<ellipse transform="matrix(0.8447 -0.5352 0.5352 0.8447 -166.8769 241.6044)" class="st0" cx="332.9" cy="408.4" rx="10.2" ry="10.2"/>
		<circle class="st0" cx="369.5" cy="379.6" r="11.5"/>
		<circle class="st0" cx="395.5" cy="341" r="13.4"/>
		<circle class="st0" cx="126" cy="422.3" r="5.1"/>
		
			<ellipse transform="matrix(0.4724 -0.8814 0.8814 0.4724 -309.7151 383.9787)" class="st0" cx="165.9" cy="450.7" rx="6.4" ry="6.4"/>
		<circle class="st0" cx="211.5" cy="468.4" r="7.7"/>
		
			<ellipse transform="matrix(1 -6.646411e-03 6.646411e-03 1 -3.1467 1.7396)" class="st0" cx="260.2" cy="474.3" rx="8.9" ry="8.9"/>
		<circle class="st0" cx="308.7" cy="468" r="10.2"/>
		<circle class="st0" cx="354.2" cy="450" r="11.5"/>
		<circle class="st0" cx="393.9" cy="421.2" r="12.8"/>
		
			<ellipse transform="matrix(0.5374 -0.8433 0.8433 0.5374 -126.8116 536.0645)" class="st0" cx="425.2" cy="383.6" rx="14" ry="14"/>
		<circle class="st0" cx="446.4" cy="339.4" r="16.5"/>
	</g>
	<g>
		<circle class="st0" cx="409.1" cy="312.2" r="3.8"/>
		<circle class="st0" cx="380.6" cy="267.3" r="5.1"/>
		<circle class="st0" cx="388" cy="224.4" r="6.4"/>
		
			<ellipse transform="matrix(0.9525 -0.3046 0.3046 0.9525 -37.5558 123.5135)" class="st0" cx="377.1" cy="182.1" rx="7.7" ry="7.7"/>
		<circle class="st0" cx="357.8" cy="145.2" r="8.9"/>
		
			<ellipse transform="matrix(0.4038 -0.9149 0.9149 0.4038 68.1841 361.0613)" class="st0" cx="311.1" cy="128.2" rx="10.8" ry="10.8"/>
		<circle class="st0" cx="428.7" cy="269.9" r="5.1"/>
		
			<ellipse transform="matrix(0.9963 -8.577291e-02 8.577291e-02 0.9963 -17.5899 38.084)" class="st0" cx="434.4" cy="223.7" rx="6.4" ry="6.4"/>
		
			<ellipse transform="matrix(0.9224 -0.3864 0.3864 0.9224 -35.7167 178.2991)" class="st0" cx="425.7" cy="178" rx="7.7" ry="7.7"/>
		
			<ellipse transform="matrix(0.7597 -0.6502 0.6502 0.7597 7.7714 295.2823)" class="st0" cx="403.5" cy="137.1" rx="8.9" ry="8.9"/>
		
			<ellipse transform="matrix(0.5242 -0.8516 0.8516 0.5242 86.5145 364.8663)" class="st0" cx="369.8" cy="105" rx="10.2" ry="10.2"/>
		
			<ellipse transform="matrix(0.2386 -0.9711 0.9711 0.2386 167.319 382.9186)" class="st0" cx="327.8" cy="84.8" rx="11.5" ry="11.5"/>
		<circle class="st0" cx="281.8" cy="78.3" r="13.4"/>
		<circle class="st0" cx="473" cy="284.9" r="5.1"/>
		
			<ellipse transform="matrix(3.760529e-02 -0.9993 0.9993 3.760529e-02 226.583 708.3573)" class="st0" cx="481" cy="236.5" rx="6.4" ry="6.4"/>
		
			<ellipse transform="matrix(0.9778 -0.2096 0.2096 0.9778 -28.7591 104.1442)" class="st0" cx="476.9" cy="187.7" rx="7.7" ry="7.7"/>
		
			<ellipse transform="matrix(0.8957 -0.4446 0.4446 0.8957 -14.8398 219.6589)" class="st0" cx="460.9" cy="141.5" rx="8.9" ry="8.9"/>
		
			<ellipse transform="matrix(0.7585 -0.6517 0.6517 0.7585 39.2656 307.1021)" class="st0" cx="434" cy="100.6" rx="10.2" ry="10.2"/>
		<circle class="st0" cx="397.8" cy="67.6" r="11.5"/>
		
			<ellipse transform="matrix(0.3547 -0.935 0.935 0.3547 187.1646 360.2716)" class="st0" cx="354.6" cy="44.5" rx="12.8" ry="12.8"/>
		<circle class="st0" cx="307" cy="32.9" r="14"/>
		<circle class="st0" cx="258.1" cy="33.3" r="16.5"/>
	</g>
	<g>
		<circle class="st0" cx="219.8" cy="28.8" r="3.8"/>
		<circle class="st0" cx="227.5" cy="75.8" r="3.8"/>
		
			<ellipse transform="matrix(1 -2.876511e-03 2.876511e-03 1 -0.3537 0.5863)" class="st0" cx="203.6" cy="123.2" rx="5.1" ry="5.1"/>
		<circle class="st0" cx="163" cy="138.9" r="6.4"/>
		<circle class="st0" cx="132.3" cy="169.9" r="7.7"/>
		<circle class="st0" cx="110.6" cy="205.5" r="8.9"/>
		
			<ellipse transform="matrix(0.9924 -0.123 0.123 0.9924 -30.3735 16.6881)" class="st0" cx="119.9" cy="254.3" rx="10.8" ry="10.8"/>
		<circle class="st0" cx="181.2" cy="80.6" r="5.1"/>
		<circle class="st0" cx="138.6" cy="99.4" r="6.4"/>
		<circle class="st0" cx="103.8" cy="130.4" r="7.7"/>
		<circle class="st0" cx="80.2" cy="170.4" r="8.9"/>
		<circle class="st0" cx="69.9" cy="215.8" r="10.2"/>
		<circle class="st0" cx="74" cy="262.2" r="11.5"/>
		
			<ellipse transform="matrix(0.82 -0.5723 0.5723 0.82 -158.0294 107.6617)" class="st0" cx="92.2" cy="305.1" rx="13.4" ry="13.4"/>
		<circle class="st0" cx="171.2" cy="34.9" r="5.1"/>
		<circle class="st0" cx="125.7" cy="52.8" r="6.4"/>
		<circle class="st0" cx="85.9" cy="81.4" r="7.7"/>
		<circle class="st0" cx="54.4" cy="118.9" r="8.9"/>
		<circle class="st0" cx="33.1" cy="163" r="10.2"/>
		
			<ellipse transform="matrix(7.242317e-02 -0.9974 0.9974 7.242317e-02 -188.7412 219.0517)" class="st0" cx="23.4" cy="211" rx="11.5" ry="11.5"/>
		
			<ellipse transform="matrix(0.9844 -0.1758 0.1758 0.9844 -45.292 8.5845)" class="st0" cx="25.8" cy="259.9" rx="12.8" ry="12.8"/>
		<ellipse transform="matrix(0.9106 -0.4132 0.4132 0.9106 -123.1412 44.0147)" class="st0" cx="40.2" cy="306.7" rx="14" ry="14"/>
		<circle class="st0" cx="65.7" cy="348.5" r="16.5"/>
	</g>
</g>
</svg>
