<?xml version="1.0" encoding="utf-8"?>
<!-- Generator: Adobe Illustrator 25.0.1, SVG Export Plug-In . SVG Version: 6.00 Build 0)  -->
<svg version="1.1" id="Ebene_1" xmlns="http://www.w3.org/2000/svg" xmlns:xlink="http://www.w3.org/1999/xlink" x="0px" y="0px"
	 viewBox="0 0 500 500" style="enable-background:new 0 0 500 500;" xml:space="preserve">
<g>
	<path d="M76.5,4C42.6,4,15,31.5,15,65.4s27.6,61.5,61.5,61.5S138,99.4,138,65.4S110.4,4,76.5,4z M76.5,99.4c-18.7,0-34-15.2-34-34
		s15.2-34,34-34s34,15.2,34,34S95.2,99.4,76.5,99.4z"/>
	<path d="M76.5,188.5C42.6,188.5,15,216.1,15,250s27.6,61.5,61.5,61.5S138,283.9,138,250S110.4,188.5,76.5,188.5z M76.5,284
		c-18.7,0-34-15.2-34-34s15.2-34,34-34s34,15.2,34,34S95.2,284,76.5,284z"/>
	<path d="M76.5,373.1c-33.9,0-61.5,27.6-61.5,61.5S42.6,496,76.5,496s61.5-27.6,61.5-61.5S110.4,373.1,76.5,373.1z M76.5,468.5
		c-18.7,0-34-15.2-34-34c0-18.7,15.2-34,34-34s34,15.2,34,34C110.5,453.3,95.2,468.5,76.5,468.5z"/>
	<path d="M250,4c-33.9,0-61.5,27.6-61.5,61.5s27.6,61.5,61.5,61.5s61.5-27.6,61.5-61.5S283.9,4,250,4z M250,99.4
		c-18.7,0-34-15.2-34-34s15.2-34,34-34s34,15.2,34,34S268.7,99.4,250,99.4z"/>
	<path d="M250,188.5c-33.9,0-61.5,27.6-61.5,61.5s27.6,61.5,61.5,61.5s61.5-27.6,61.5-61.5S283.9,188.5,250,188.5z M250,284
		c-18.7,0-34-15.2-34-34s15.2-34,34-34s34,15.2,34,34S268.7,284,250,284z"/>
	<path d="M250,373.1c-33.9,0-61.5,27.6-61.5,61.5S216.1,496,250,496s61.5-27.6,61.5-61.5S283.9,373.1,250,373.1z M250,468.5
		c-18.7,0-34-15.2-34-34c0-18.7,15.2-34,34-34s34,15.2,34,34C284,453.3,268.7,468.5,250,468.5z"/>
	<path d="M423.5,4C389.6,4,362,31.5,362,65.4s27.6,61.5,61.5,61.5S485,99.4,485,65.4S457.4,4,423.5,4z M423.5,99.4
		c-18.7,0-34-15.2-34-34s15.2-34,34-34c18.7,0,34,15.2,34,34S442.2,99.4,423.5,99.4z"/>
	<path d="M423.5,188.5c-33.9,0-61.5,27.6-61.5,61.5s27.6,61.5,61.5,61.5S485,283.9,485,250S457.4,188.5,423.5,188.5z M423.5,284
		c-18.7,0-34-15.2-34-34s15.2-34,34-34c18.7,0,34,15.2,34,34S442.2,284,423.5,284z"/>
	<path d="M423.5,373.1c-33.9,0-61.5,27.6-61.5,61.5s27.6,61.5,61.5,61.5s61.5-27.6,61.5-61.5S457.4,373.1,423.5,373.1z M423.5,468.5
		c-18.7,0-34-15.2-34-34c0-18.7,15.2-34,34-34c18.7,0,34,15.2,34,34C457.5,453.3,442.2,468.5,423.5,468.5z"/>
</g>
</svg>
